# xmcd
# 
# Track frame offsets:
#     151
#     25674
#     52507
#     58926
#     90543
#     111542
# 
# Disc length: 1775
# 
# Revision: 0
# Processed by: cddbd v1.5.2PL0 Copyright (c) Steve Scherf et al.
# Submitted via: fre:ac v1.0.17
# 
DISCID=4406ed06
DTITLE=ヤスムロコウイチ - ぎんのすず
DYEAR=2005
DGENRE=
TTITLE0=サーカスの日
TTITLE1=約束
TTITLE2=カメラを持った天使
TTITLE3=夜を見てた
TTITLE4=窓
TTITLE5=ある日曜日
EXTD=
EXTT0=
EXTT1=
EXTT2=
EXTT3=
EXTT4=
EXTT5=
PLAYORDER=
